<svg width="122" height="24" viewBox="0 0 122 24" fill="none" xmlns="http://www.w3.org/2000/svg">
<path fill-rule="evenodd" clip-rule="evenodd" d="M117.375 1.4733C117.375 2.2851 116.676 2.9467 115.817 2.9467C114.958 2.9467 114.258 2.2851 114.258 1.4733C114.258 0.659702 114.958 0 115.817 0C116.676 0 117.375 0.659702 117.375 1.4733ZM10.3613 4.25667C11.7571 4.06127 13.2549 4.03057 14.8099 4.16077C16.3328 4.28737 18.5123 4.57117 20.2856 5.20207H21.27V10.8933H20.3716L20.343 10.6638C20.3412 10.6493 20.1497 9.20487 19.0439 7.87227C17.5658 6.09697 15.2286 5.34497 12.097 5.64147L12.096 5.64156C12.0442 5.64643 10.2422 5.81572 8.4 6.67917C5.9448 7.82917 4.58128 9.60977 4.34507 11.9708C4.34147 11.9997 4.22691 13.421 5.0662 14.9738C6.19731 17.0619 8.4376 18.3925 11.7249 18.9277C11.9306 18.9514 17.4584 19.5459 19.2209 17.1523C19.2352 17.1343 20.1354 15.9791 20.3447 14.8145L20.3841 14.5974H21.27V19.4882H20.2732C19.8365 19.6002 16.1752 20.5222 12.836 20.5222C12.3189 20.5222 11.8107 20.5006 11.3221 20.4498L10.6046 20.3758C10.5294 20.3704 8.6273 20.1932 6.512 19.3506C3.68119 18.2243 1.856 16.4326 1.23149 14.1711C0.576579 11.7812 1.31718 9.19037 3.16215 7.40967C4.88896 5.74467 7.31016 4.68507 10.3613 4.25667ZM99.8537 4.16126C98.297 4.03086 96.8009 4.06346 95.4052 4.25876C92.3524 4.68546 89.9312 5.74486 88.2061 7.40996C86.3719 9.17986 85.6292 11.7561 86.2664 14.1299C87.3025 17.9915 91.4452 19.5029 93.8305 20.0596L93.8412 20.062C93.849 20.0639 93.8588 20.0663 93.8717 20.0686L93.9342 20.0833C94.2099 20.1411 95.2011 20.3399 96.3642 20.4484C96.5058 20.4629 97.0551 20.5009 97.1518 20.5064C97.3897 20.5171 97.6295 20.5206 97.8712 20.5206C101.219 20.5206 104.88 19.5988 105.314 19.4848H106.314V14.5945H105.426L105.387 14.8097C105.177 15.9759 104.277 17.1345 104.263 17.1526C102.504 19.5479 96.9746 18.9497 96.7707 18.9261C93.4815 18.3929 91.2392 17.0622 90.1084 14.974C89.288 13.4588 89.3809 12.0681 89.3869 11.9777L89.3872 11.9732C89.6234 9.61186 90.9887 7.83126 93.4439 6.67946C95.3031 5.80816 97.1231 5.64356 97.1427 5.64196C100.274 5.34516 102.61 6.09736 104.086 7.87456C105.194 9.20516 105.383 10.6516 105.385 10.6659L105.414 10.8956H106.314V5.20246H105.326C103.558 4.57326 101.378 4.28956 99.8537 4.16126ZM32.3314 1.4733C32.3314 2.2851 31.6317 2.9467 30.7728 2.9467C29.9138 2.9467 29.2141 2.2851 29.2141 1.4733C29.2141 0.659702 29.9138 0 30.7728 0C31.6317 0 32.3314 0.659702 32.3314 1.4733ZM25.6361 5.4424H27.3485C27.6671 5.4424 27.9588 5.4823 28.2129 5.5635C28.9412 5.7931 29.3097 6.2345 29.3097 6.8743V17.6604C29.3097 18.3 28.9412 18.7413 28.2129 18.9709C27.9588 19.0506 27.6671 19.092 27.3485 19.092H25.6361V19.9707H35.9667V19.092H34.2541C33.9356 19.092 33.644 19.0506 33.3881 18.9709C32.6614 18.7413 32.291 18.3 32.291 17.6604V6.8743C32.291 6.2345 32.6614 5.7931 33.3881 5.5635C33.644 5.4823 33.9356 5.4424 34.2541 5.4424H35.9667V4.564H25.6361V5.4424ZM78.0393 1.4733C78.0393 2.2851 77.3397 2.9467 76.4807 2.9467C75.6217 2.9467 74.9221 2.2851 74.9221 1.4733C74.9221 0.659702 75.6217 0 76.4807 0C77.3397 0 78.0393 0.659702 78.0393 1.4733ZM71.3441 5.4424H73.0566C73.3751 5.4424 73.6669 5.4823 73.9209 5.5635C74.6493 5.7931 75.0178 6.2345 75.0178 6.8743V17.6604C75.0178 18.3 74.6493 18.7413 73.9209 18.9709C73.6669 19.0506 73.3751 19.092 73.0566 19.092H71.3441V19.9707H81.6748V19.092H79.9622C79.6437 19.092 79.352 19.0506 79.0961 18.9709C78.3696 18.7413 77.9991 18.3 77.9991 17.6604V6.8743C77.9991 6.2345 78.3696 5.7931 79.0961 5.5635C79.352 5.4823 79.6437 5.4424 79.9622 5.4424H81.6748V4.564H71.3441V5.4424ZM119.3 5.4424C118.98 5.4424 118.688 5.4823 118.434 5.5635C117.706 5.7931 117.337 6.2342 117.337 6.8743V17.6604C117.337 18.3 117.706 18.7413 118.434 18.9709C118.688 19.0506 118.98 19.092 119.3 19.092H121.011V19.9707H110.68V19.092H112.393C112.713 19.092 113.003 19.0506 113.259 18.9709C113.985 18.7413 114.356 18.3 114.356 17.6604V6.8743C114.356 6.2342 113.985 5.7931 113.259 5.5635C113.003 5.4823 112.713 5.4424 112.393 5.4424H110.68V4.564H121.011V5.4424H119.3ZM58.0025 5.4424H59.4859C59.9995 5.4515 61.6709 5.5818 61.6709 6.8869V17.042L49.1643 6.3374C49.0227 6.1981 47.4176 4.6704 45.2041 4.5692L45.2023 4.564H40.3331V5.4424H41.974C41.9749 5.44266 41.9804 5.44289 41.9901 5.44329C42.1156 5.44846 42.9399 5.48238 43.4898 5.9994C43.8334 6.3227 44.0087 6.7786 44.0087 7.3551L44.0016 17.6457C44.0016 18.9511 42.3302 19.083 41.8219 19.092H40.3331V19.9707H49.3092V19.092H47.8238C47.312 19.083 45.639 18.9511 45.639 17.6457V7.1075L60.6115 19.9057L60.6901 19.9724H63.3081V6.8869C63.3081 5.5818 64.9814 5.4515 65.4878 5.4424H66.9783V4.564H58.0025V5.4424ZM12.435 24.0006L14.3319 21.1911C13.8344 21.2236 13.3316 21.2435 12.8359 21.2435C12.2884 21.2435 11.7677 21.2201 11.2862 21.173L9.99607 24.0006H12.435Z" fill="#272727"/>
</svg>
