<svg width="16" height="16" viewBox="0 0 16 16" fill="none" xmlns="http://www.w3.org/2000/svg">
<path d="M7.2 0.5C7.6 0.5 8.1 0.5 8.5 0.6C8.9 0.7 9.3 0.8 9.7 1C10.1 1.2 10.5 1.4 10.9 1.6C11.3 1.8 11.6 2.1 11.9 2.4C12.2 2.7 12.5 3 12.7 3.4C12.9 3.8 13.1 4.1 13.3 4.5C13.5 4.9 13.6 5.3 13.7 5.7C13.8 6.1 13.8 6.5 13.8 7C13.8 7.4 13.8 7.8 13.7 8.3C13.6 8.7 13.5 9.1 13.3 9.5C13.1 9.9 12.9 10.3 12.7 10.6C12.5 11 12.2 11.3 11.9 11.6C11.6 11.9 11.3 12.2 10.9 12.4C10.5 12.6 10.2 12.8 9.7 13C9.3 13.2 8.9 13.3 8.4 13.4C8 13.5 7.5 13.5 7.1 13.5C6.7 13.5 6.2 13.5 5.8 13.4C5.4 13.3 5 13.2 4.6 13C4.2 12.8 3.8 12.6 3.4 12.4C3 12.2 2.7 11.9 2.4 11.6C2.1 11.3 1.8 11 1.6 10.6C1.4 10.3 1.2 9.9 1 9.5C0.8 9.1 0.7 8.7 0.6 8.3C0.5 7.9 0.5 7.4 0.5 7C0.5 6.6 0.5 6.2 0.6 5.7C0.7 5.3 0.8 4.9 1 4.5C1.2 4.1 1.4 3.7 1.6 3.4C1.8 3 2.1 2.7 2.4 2.4C2.7 2.1 3 1.8 3.4 1.6C3.8 1.4 4.2 1.2 4.6 1C5 0.8 5.4 0.7 5.9 0.6C6.3 0.5 6.7 0.5 7.2 0.5Z" stroke="#272727" stroke-miterlimit="10"/>
<path d="M11.7002 11.7998L15.5002 15.4998" stroke="#272727" stroke-miterlimit="10"/>
</svg>
